HIERARCHY
ROOT ui
{
	 OFFSET 0 0 0
	 CHANNELS 3 XPosition YPosition Z Position
	 EndSite
	 {
	 OFFSET 0 -1 0
	 }
}
ROOT li
{
	 OFFSET 0 0 0
	 CHANNELS 3 XPosition YPosition Z Position
	 EndSite
	 {
	 OFFSET 0 -1 0
	 }
}
ROOT ul
{
	 OFFSET 0 0 0
	 CHANNELS 3 XPosition YPosition Z Position
	 EndSite
	 {
	 OFFSET 0 -1 0
	 }
}
ROOT ll
{
	 OFFSET 0 0 0
	 CHANNELS 3 XPosition YPosition Z Position
	 EndSite
	 {
	 OFFSET 0 -1 0
	 }
}
ROOT tt
{
	 OFFSET 0 0 0
	 CHANNELS 3 XPosition YPosition Z Position
	 EndSite
	 {
	 OFFSET 0 -1 0
	 }
}
ROOT tb
{
	 OFFSET 0 0 0
	 CHANNELS 3 XPosition YPosition Z Position
	 EndSite
	 {
	 OFFSET 0 -1 0
	 }
}
ROOT td
{
	 OFFSET 0 0 0
	 CHANNELS 3 XPosition YPosition Z Position
	 EndSite
	 {
	 OFFSET 0 -1 0
	 }
}
ROOT v
{
	 OFFSET 0 0 0
	 CHANNELS 3 XPosition YPosition Z Position
	 EndSite
	 {
	 OFFSET 0 -1 0
	 }
}
ROOT bn
{
	 OFFSET 0 0 0
	 CHANNELS 3 XPosition YPosition Z Position
	 EndSite
	 {
	 OFFSET 0 -1 0
	 }
}
MOTION
Frames: 16
Frame Time: 0.002
0.0023409390449523927	0.003132559061050415	0		0.5855005493164063	-2.60514013671875	0		-1.034918701171875	-0.008593550682067871	0		-0.44265545654296873	-3.118038818359375	0		1.892998779296875	-1.2700076904296875	0		3.484435546875	-1.1038936767578125	0		4.60973828125	-0.7263445434570313	0		5.952796875	0.4312815856933594	0		-0.2039164276123047	5.87152685546875	0		
-0.02389336585998535	0.0038686699867248537	0		0.5514369506835938	-2.591297119140625	0		-1.037045166015625	-1.849980056285858E-4	0		-0.44969586181640625	-3.102564208984375	0		1.8958123779296876	-1.2656776123046876	0		3.47708544921875	-1.1114302978515624	0		4.60334814453125	-0.7368986206054687	0		5.94456201171875	0.43174942016601564	0		-0.17103973388671875	5.87845068359375	0		
-2.7330300211906433E-4	-0.0070886130332946775	0		0.5870494995117187	-2.6024208984375	0		-1.041312255859375	-0.002755039930343628	0		-0.45673629760742185	-3.088095947265625	0		1.860903076171875	-1.24183056640625	0		3.452927734375	-1.10573681640625	0		4.6031201171875	-0.7365379028320312	0		5.95308837890625	0.413984619140625	0		-0.20434474182128906	5.8722783203125	0		
-0.0013730649948120116	0.0012890440225601196	0		0.5379777221679688	-2.591383544921875	0		-1.03155078125	-0.004526265144348144	0		-0.480756103515625	-3.073401611328125	0		1.870869140625	-1.2286077880859374	0		3.4774794921875	-1.1227203369140626	0		4.597798828125	-0.74411083984375	0		5.94975537109375	0.405382080078125	0		-0.18840934753417968	5.882421875	0		
0.08340348052978516	-0.0015249439477920531	0		0.5869208984375	-2.581703369140625	0		-1.0195883178710938	0.006664563179016114	0		-0.5026963806152344	-3.05474365234375	0		1.8772030029296876	-1.190339111328125	0		3.495812255859375	-1.0846181640625	0		4.607595703125	-0.744895751953125	0		5.95780126953125	0.42262197875976565	0		-0.15552688598632813	5.88732373046875	0		
-0.01973716926574707	0.0012407139539718627	0		0.5488839721679688	-2.57183349609375	0		-1.0337786865234375	0.005205060005187988	0		-0.4387293090820312	-3.0452783203125	0		1.9111456298828124	-1.1824609375	0		3.45932080078125	-1.107773193359375	0		4.5984873046875	-0.7404253540039063	0		5.93652880859375	0.415258544921875	0		-0.20489224243164061	5.87334716796875	0		
-0.001870568037033081	0.0023306879997253417	0		0.5668477783203125	-2.563744140625	0		-1.02799365234375	4.6052199602127075E-4	0		-0.5105227355957032	-3.018951416015625	0		1.8832235107421875	-1.1657384033203124	0		3.470340087890625	-1.0955867919921876	0		4.60905224609375	-0.7612354736328125	0		5.94027294921875	0.4075440673828125	0		-0.20503958129882813	5.87368505859375	0		
-0.023071994781494142	-0.0020518720149993895	0		0.5407584838867188	-2.56005810546875	0		-1.028128173828125	7.877119779586792E-4	0		-0.47946566772460936	-3.00505224609375	0		1.885323486328125	-1.1484385986328125	0		3.471054443359375	-1.1062696533203125	0		4.5979326171875	-0.7597535400390625	0		5.93601416015625	0.3989313659667969	0		-0.21932778930664062	5.86320654296875	0		
0.0027955539226531983	-0.002093008041381836	0		0.5535744018554688	-2.56391943359375	0		-1.0201625366210938	0.007992878913879394	0		-0.538339599609375	-2.985925048828125	0		1.8594586181640624	-1.128763916015625	0		3.4723798828125	-1.0729666748046875	0		4.59780322265625	-0.7594326782226563	0		5.94486962890625	0.3981295471191406	0		-0.19016270446777345	5.8851220703125	0		
-0.02027618408203125	0.002528536081314087	0		0.5496556396484376	-2.548559814453125	0		-1.0093063354492187	0.007145484924316406	0		-0.5032064819335937	-2.967104248046875	0		1.8646197509765625	-1.107527099609375	0		3.468059814453125	-1.0866004638671876	0		4.60661962890625	-0.7632449951171875	0		5.93674072265625	0.3985526123046875	0		-0.156233642578125	5.88995849609375	0		
0.005578406810760498	0.0014637730121612549	0		0.5495311889648438	-2.548265625	0		-1.0153661499023436	0.012518821716308593	0		-0.54206494140625	-2.94727685546875	0		1.859823486328125	-1.0831639404296876	0		3.476276123046875	-1.0614134521484375	0		4.59446533203125	-0.7647780151367187	0		5.94460986328125	0.39874658203125	0		-0.19043934631347656	5.8857197265625	0		
0.0024085590839385985	-0.001214445948600769	0		0.5763785400390625	-2.55035546875	0		-1.0154949951171874	0.012796505928039551	0		-0.4780549011230469	-2.9378798828125	0		1.867847900390625	-1.0719903564453126	0		3.462999755859375	-1.0719447021484374	0		4.58335302734375	-0.7633351440429688	0		5.93648095703125	0.39915158081054686	0		-0.18680332946777345	5.86994580078125	0		
-0.006704150199890136	1.7569999396800995E-4	0		0.5414412231445312	-2.53660693359375	0		-1.0156223754882812	0.013059799194335937	0		-0.550849853515625	-2.913612548828125	0		1.85893115234375	-1.0565958251953125	0		3.459054931640625	-1.0586138916015626	0		4.6000888671875	-0.7732877807617188	0		5.92325732421875	0.3926156311035156	0		-0.20587796020507812	5.87547265625	0		
-0.0018840910196304321	-0.00364101505279541	0		0.5532422485351562	-2.542517822265625	0		-1.0098162231445313	0.008225790023803711	0		-0.5408134155273437	-2.90250146484375	0		1.8540723876953125	-1.0372703857421874	0		3.465892333984375	-1.06144580078125	0		4.5779970703125	-0.770717041015625	0		5.93211669921875	0.39176495361328123	0		-0.1889151153564453	5.88348876953125	0		
0.005078019142150879	0.0024985270500183106	0		0.5602561645507812	-2.533376220703125	0		-0.997785888671875	0.019291900634765626	0		-0.53656396484375	-2.876324951171875	0		1.870244140625	-1.0162483520507812	0		3.46220361328125	-1.0301429443359376	0		4.5750732421875	-0.756421630859375	0		5.93687109375	0.3829580993652344	0		-0.18905935668945312	5.883724609375	0		
0.004964897155761719	0.002719101905822754	0		0.5683605346679688	-2.518264404296875	0		-1.0078843994140625	0.02064508819580078	0		-0.5444976196289063	-2.863998046875	0		1.8782725830078124	-1.0061298217773438	0		3.43901513671875	-1.035589111328125	0		4.57189501953125	-0.7611376342773437	0		5.92777099609375	0.3843305358886719	0		-0.1722295684814453	5.88171044921875	0		
